<svg xmlns="http://www.w3.org/2000/svg" version="1.1" xmlns:xlink="http://www.w3.org/1999/xlink" xmlns:svgjs="http://svgjs.dev/svgjs" viewBox="0 0 2400 800" opacity="0.63"><defs><linearGradient x1="50%" y1="0%" x2="50%" y2="100%" id="sssurf-grad"><stop stop-color="hsl(208, 77%, 50%)" stop-opacity="1" offset="0%"></stop><stop stop-color="hsl(208, 74%, 93%)" stop-opacity="1" offset="100%"></stop></linearGradient></defs><g fill="url(#sssurf-grad)" transform="matrix(1,0,0,1,0,-85.11737060546875)"><path d="M 0 349.9708234286736 Q 360 623.267366158969 480 371.8471204686616 Q 840 460.16816470690503 960 276.23472744103645 Q 1320 634.1578349361714 1440 352.26492272256036 Q 1800 529.2226586908732 1920 359.19389281996894 Q 2280 614.6125833782535 2400 366.41940304012377 L 2400 800 L 0 800 L 0 375.89843747694505 Z" transform="matrix(1,0,0,1,0,42)" opacity="0.05"></path><path d="M 0 349.9708234286736 Q 360 623.267366158969 480 371.8471204686616 Q 840 460.16816470690503 960 276.23472744103645 Q 1320 634.1578349361714 1440 352.26492272256036 Q 1800 529.2226586908732 1920 359.19389281996894 Q 2280 614.6125833782535 2400 366.41940304012377 L 2400 800 L 0 800 L 0 375.89843747694505 Z" transform="matrix(1,0,0,1,0,84)" opacity="0.24"></path><path d="M 0 349.9708234286736 Q 360 623.267366158969 480 371.8471204686616 Q 840 460.16816470690503 960 276.23472744103645 Q 1320 634.1578349361714 1440 352.26492272256036 Q 1800 529.2226586908732 1920 359.19389281996894 Q 2280 614.6125833782535 2400 366.41940304012377 L 2400 800 L 0 800 L 0 375.89843747694505 Z" transform="matrix(1,0,0,1,0,126)" opacity="0.43"></path><path d="M 0 349.9708234286736 Q 360 623.267366158969 480 371.8471204686616 Q 840 460.16816470690503 960 276.23472744103645 Q 1320 634.1578349361714 1440 352.26492272256036 Q 1800 529.2226586908732 1920 359.19389281996894 Q 2280 614.6125833782535 2400 366.41940304012377 L 2400 800 L 0 800 L 0 375.89843747694505 Z" transform="matrix(1,0,0,1,0,168)" opacity="0.62"></path><path d="M 0 349.9708234286736 Q 360 623.267366158969 480 371.8471204686616 Q 840 460.16816470690503 960 276.23472744103645 Q 1320 634.1578349361714 1440 352.26492272256036 Q 1800 529.2226586908732 1920 359.19389281996894 Q 2280 614.6125833782535 2400 366.41940304012377 L 2400 800 L 0 800 L 0 375.89843747694505 Z" transform="matrix(1,0,0,1,0,210)" opacity="0.81"></path><path d="M 0 349.9708234286736 Q 360 623.267366158969 480 371.8471204686616 Q 840 460.16816470690503 960 276.23472744103645 Q 1320 634.1578349361714 1440 352.26492272256036 Q 1800 529.2226586908732 1920 359.19389281996894 Q 2280 614.6125833782535 2400 366.41940304012377 L 2400 800 L 0 800 L 0 375.89843747694505 Z" transform="matrix(1,0,0,1,0,252)" opacity="1.00"></path></g></svg>